<?xml version="1.0" encoding="UTF-8"?>
<svg width="180" height="260" viewBox="0 0 180 260" fill="none" xmlns="http://www.w3.org/2000/svg">
  <defs>
    <linearGradient id="bodyGradient" x1="40" y1="20" x2="150" y2="220" gradientUnits="userSpaceOnUse">
      <stop offset="0%" stop-color="#f8f8f8" />
      <stop offset="100%" stop-color="#dbdde1" />
    </linearGradient>
    <linearGradient id="accentGradient" x1="60" y1="120" x2="140" y2="220" gradientUnits="userSpaceOnUse">
      <stop offset="0%" stop-color="#f472b6" />
      <stop offset="100%" stop-color="#f472b6" stop-opacity="0.85" />
    </linearGradient>
    <linearGradient id="shadowGradient" x1="80" y1="80" x2="120" y2="240" gradientUnits="userSpaceOnUse">
      <stop offset="0%" stop-color="#111827" />
      <stop offset="100%" stop-color="#111827" stop-opacity="0.7" />
    </linearGradient>
  </defs>

  <rect width="180" height="260" rx="32" fill="#f1f2f4" />

  <g transform="translate(0, 10)">
    <circle cx="92" cy="38" r="22" fill="#111827" opacity="0.85" />
    <circle cx="86" cy="34" r="16" fill="#f8f8f8" />

    <path d="M86 58C66 88 52 115 52 142C52 182 78 204 78 228C78 236 76 244 72 252" stroke="#0f172a" stroke-width="12" stroke-linecap="round" stroke-linejoin="round" />

    <path d="M100 58C124 94 134 122 134 148C134 184 110 204 110 228C110 236 112 244 116 252" stroke="url(#shadowGradient)" stroke-width="13" stroke-linecap="round" stroke-linejoin="round" />

    <path d="M62 122C84 122 98 136 98 156C98 184 72 192 72 212C72 222 84 230 92 230" stroke="#111827" stroke-width="8" stroke-linecap="round" stroke-linejoin="round" />

    <path d="M78 80C102 104 116 128 116 152C116 182 92 200 92 228" stroke="#f8f8f8" stroke-width="8" stroke-linecap="round" stroke-linejoin="round" />

    <path d="M108 96C124 120 132 142 132 166C132 198 112 214 112 234" stroke="url(#accentGradient)" stroke-width="11" stroke-linecap="round" stroke-linejoin="round" />

    <path d="M84 72C104 92 114 112 114 138C114 170 92 186 92 210" stroke="url(#bodyGradient)" stroke-width="16" stroke-linecap="round" stroke-linejoin="round" />
  </g>

  <text x="90" y="230" text-anchor="middle" font-family="'Manrope', 'Inter', sans-serif" font-size="20" font-weight="700" fill="#111827">Caro Ibáñez</text>
  <text x="90" y="248" text-anchor="middle" font-family="'Manrope', 'Inter', sans-serif" font-size="12" font-weight="500" letter-spacing="0.25em" fill="#6b7280">NUTRICIÓN DEPORTIVA</text>
</svg>
